<?xml version="1.0" standalone="no"?>
<!DOCTYPE svg PUBLIC "-//W3C//DTD SVG 20010904//EN"
 "http://www.w3.org/TR/2001/REC-SVG-20010904/DTD/svg10.dtd">
<svg version="1.0" xmlns="http://www.w3.org/2000/svg"
 width="472.000000pt" height="314.000000pt" viewBox="0 0 472.000000 314.000000"
 preserveAspectRatio="xMidYMid meet">
<metadata>
Created by potrace 1.15, written by Peter Selinger 2001-2017
</metadata>
<g transform="translate(0.000000,314.000000) scale(0.100000,-0.100000)"
fill="#000000" stroke="none">
<path d="M0 1575 l0 -1565 2355 0 2355 0 0 1565 0 1565 -2355 0 -2355 0 0
-1565z m340 1330 l0 -225 2180 0 c1931 0 2180 -2 2180 -15 0 -13 -249 -15
-2180 -15 l-2180 0 0 -1315 c0 -1162 -2 -1315 -15 -1315 -13 0 -15 153 -15
1315 l0 1315 -150 0 c-127 0 -150 2 -150 15 0 13 23 15 150 15 l150 0 0 225
c0 193 2 225 15 225 13 0 15 -32 15 -225z m978 -595 c92 -116 102 -132 90
-148 -7 -10 -53 -69 -102 -130 l-89 -112 -114 0 -114 0 101 125 c55 68 100
129 100 135 0 6 -45 67 -100 135 l-101 125 113 0 113 0 103 -130z m1666 74
c11 -4 16 -19 16 -46 l0 -40 -32 9 c-62 15 -115 9 -143 -17 -32 -30 -49 -91
-42 -152 14 -118 80 -152 200 -103 16 7 18 3 15 -36 -3 -40 -6 -43 -38 -52
-19 -5 -63 -7 -96 -5 -106 7 -160 64 -171 182 -11 116 35 218 111 252 32 13
152 19 180 8z m-1160 -18 c54 -22 76 -60 76 -127 0 -48 -4 -63 -27 -90 -34
-40 -79 -59 -138 -59 l-45 0 0 -70 0 -70 -40 0 -40 0 0 215 0 215 90 0 c54 0
104 -6 124 -14z m246 -82 l44 -96 44 96 45 96 43 0 c24 0 44 -2 44 -5 0 -3
-29 -64 -65 -135 -64 -127 -65 -131 -65 -210 l0 -80 -45 0 -45 0 0 75 c0 73
-2 79 -70 215 l-70 140 48 0 48 0 44 -96z m1072 -75 c3 -166 4 -171 27 -190
32 -26 67 -24 96 6 25 24 25 27 25 190 l0 165 40 0 40 0 0 -168 c0 -189 -9
-221 -71 -254 -47 -25 -134 -24 -177 2 -54 33 -62 68 -62 255 l0 165 39 0 39
0 4 -171z m578 141 c0 -29 -1 -30 -50 -30 l-50 0 0 -155 0 -155 50 0 c49 0 50
-1 50 -30 l0 -30 -135 0 -135 0 0 30 c0 29 2 30 45 30 l45 0 0 155 0 155 -45
0 c-43 0 -45 1 -45 30 l0 30 135 0 135 0 0 -30z m-1050 -500 l0 -30 -185 0
-185 0 0 30 0 30 185 0 185 0 0 -30z m-790 -440 l0 -60 580 0 580 0 0 60 0 60
165 0 165 0 0 -145 0 -145 -65 0 -65 0 0 -320 0 -320 65 0 65 0 0 -145 0 -145
-165 0 -165 0 0 60 0 60 -580 0 -580 0 0 -55 0 -55 -165 0 -165 0 0 145 0 145
75 0 75 0 0 315 0 315 -75 0 -75 0 0 145 0 145 165 0 165 0 0 -60z"/>
<path d="M1690 2235 l0 -85 30 0 c70 0 111 50 94 113 -11 36 -44 57 -91 57
l-33 0 0 -85z"/>
<path d="M1570 1325 l0 -125 145 0 145 0 0 125 0 125 -145 0 -145 0 0 -125z"/>
<path d="M3060 1325 l0 -125 145 0 145 0 0 125 0 125 -145 0 -145 0 0 -125z"/>
<path d="M1880 1255 l0 -75 -80 0 -80 0 0 -315 0 -315 80 0 80 0 0 -80 0 -80
580 0 580 0 0 75 0 75 90 0 90 0 0 320 0 320 -90 0 -90 0 0 75 0 75 -580 0
-580 0 0 -75z"/>
<path d="M1570 405 l0 -125 145 0 145 0 0 125 0 125 -145 0 -145 0 0 -125z"/>
<path d="M3060 395 l0 -125 145 0 145 0 0 125 0 125 -145 0 -145 0 0 -125z"/>
</g>
</svg>
