<?xml version="1.0" encoding="UTF-8" standalone="no"?>
<!DOCTYPE svg PUBLIC "-//W3C//DTD SVG 1.1//EN" "http://www.w3.org/Graphics/SVG/1.1/DTD/svg11.dtd">
<svg version="1.1" xmlns="http://www.w3.org/2000/svg" xmlns:xlink="http://www.w3.org/1999/xlink" preserveAspectRatio="xMidYMid meet" viewBox="0 0 627 416.67" width="627" height="416.67"><defs><path d="M0.33 0L627.33 0L627.33 416.67L0.33 416.67L0.33 0Z" id="b1KQBaoML3"></path><path d="M0.33 416.67L313.83 416.67L627.33 416.67L627.33 208.33L627.33 0L313.83 0L0.33 0L0.33 208.33L0.33 416.67ZM45.6 61.24C219.72 61.24 316.45 61.24 335.8 61.24C592.86 61.24 626 61.5 626 63.23C626 64.96 592.86 65.23 335.8 65.23C316.45 65.23 219.72 65.23 45.6 65.23C45.6 170.26 45.6 228.61 45.6 240.28C45.6 394.97 45.33 415.34 43.6 415.34C41.87 415.34 41.6 394.97 41.6 240.28C41.6 228.61 41.6 170.26 41.6 65.23C29.62 65.23 22.96 65.23 21.63 65.23C4.73 65.23 1.67 64.96 1.67 63.23C1.67 61.5 4.73 61.24 21.63 61.24C22.96 61.24 29.62 61.24 41.6 61.24C41.6 43.26 41.6 33.28 41.6 31.28C41.6 5.59 41.87 1.33 43.6 1.33C45.33 1.33 45.6 5.59 45.6 31.28C45.6 35.28 45.6 45.26 45.6 61.24ZM187.77 130.19C186.84 131.52 180.71 139.38 174.19 147.5C173.4 148.49 169.45 153.46 162.34 162.41L147.17 162.41L131.99 162.41C140.06 152.42 144.54 146.88 145.44 145.77C152.76 136.72 158.75 128.59 158.75 127.8C158.75 127 152.76 118.88 145.44 109.82C144.54 108.72 140.06 103.17 131.99 93.18L147.03 93.18L162.08 93.18L175.79 110.49C184.84 122.21 188.83 128.77 187.77 130.19ZM399.7 106.76C399.7 107.12 399.7 108.89 399.7 112.09C397.14 111.37 395.72 110.97 395.44 110.89C387.18 108.89 380.13 109.69 376.4 113.15C372.14 117.15 369.88 125.27 370.81 133.39C372.67 149.1 381.46 153.62 397.43 147.1C399.56 146.17 399.83 146.7 399.43 151.89C399.03 157.22 398.63 157.62 394.37 158.81C391.84 159.48 385.99 159.75 381.59 159.48C367.48 158.55 360.29 150.96 358.83 135.25C357.36 119.81 363.49 106.23 373.61 101.7C377.87 99.97 393.84 99.18 397.57 100.64C399.03 101.17 399.7 103.17 399.7 106.76ZM253.26 119.94C253.26 126.33 252.73 128.33 249.67 131.92C245.14 137.25 239.15 139.78 231.3 139.78C230.9 139.78 228.9 139.78 225.31 139.78L225.31 149.1L225.31 158.41L219.98 158.41L214.66 158.41L214.66 129.79L214.66 101.17C221.85 101.17 225.84 101.17 226.64 101.17C233.83 101.17 240.48 101.97 243.15 103.04C250.34 105.96 253.26 111.02 253.26 119.94ZM281.75 126.73L287.61 113.95L293.6 101.17C297.03 101.17 298.94 101.17 299.32 101.17C302.52 101.17 305.18 101.44 305.18 101.84C305.18 102.24 301.32 110.36 296.53 119.81C288.01 136.72 287.88 137.25 287.88 147.76C287.88 148.47 287.88 152.02 287.88 158.41L281.89 158.41L275.89 158.41C275.89 152.42 275.89 149.1 275.89 148.43C275.89 138.71 275.63 137.91 266.58 119.81C265.96 118.57 262.85 112.35 257.26 101.17L263.65 101.17L270.04 101.17L275.89 113.95L281.75 126.73ZM422.19 149.23C426.45 152.69 431.11 152.42 434.97 148.43C438.3 145.24 438.3 144.84 438.3 123.14C438.3 121.67 438.3 114.35 438.3 101.17L443.63 101.17L448.95 101.17C448.95 114.59 448.95 122.05 448.95 123.54C448.95 148.7 447.75 152.96 439.5 157.35C433.24 160.68 421.66 160.54 415.94 157.08C408.75 152.69 407.68 148.03 407.68 123.14C407.68 121.67 407.68 114.35 407.68 101.17L412.88 101.17L418.07 101.17L418.6 123.94C418.96 139.11 420.15 147.54 422.19 149.23ZM488.89 109.16C488.44 109.16 486.23 109.16 482.23 109.16L482.23 129.79L482.23 150.43C486.23 150.43 488.44 150.43 488.89 150.43C495.41 150.43 495.54 150.56 495.54 154.42C495.54 154.69 495.54 156.02 495.54 158.41L477.57 158.41L459.6 158.41C459.6 156.02 459.6 154.69 459.6 154.42C459.6 150.56 459.87 150.43 465.59 150.43C465.99 150.43 467.99 150.43 471.58 150.43L471.58 129.79L471.58 109.16C467.99 109.16 465.99 109.16 465.59 109.16C459.87 109.16 459.6 109.03 459.6 105.17C459.6 104.9 459.6 103.57 459.6 101.17L477.57 101.17L495.54 101.17L495.54 105.17C495.46 107.83 493.24 109.16 488.89 109.16ZM355.77 175.72L331.14 175.72L306.51 175.72L306.51 171.73L306.51 167.73L331.14 167.73L355.77 167.73L355.77 171.73L355.77 175.72ZM250.6 238.29L327.81 238.29L405.02 238.29L405.02 230.3L405.02 222.31L426.99 222.31L448.95 222.31L448.95 241.61L448.95 260.92L440.3 260.92L431.65 260.92L431.65 303.52L431.65 346.11L440.3 346.11L448.95 346.11L448.95 365.42L448.95 384.72L426.99 384.72L405.02 384.72L405.02 376.73L405.02 368.75L327.81 368.75L250.6 368.75L250.6 376.07L250.6 383.39L228.64 383.39L206.67 383.39L206.67 364.09L206.67 344.78L216.66 344.78L226.64 344.78L226.64 302.85L226.64 260.92L216.66 260.92L206.67 260.92L206.67 241.61L206.67 222.31L228.64 222.31L250.6 222.31L250.6 230.3L250.6 238.29Z" id="d2I3IwDcz1"></path><path d="M225.31 131.79C227.71 131.79 229.04 131.79 229.3 131.79C238.62 131.79 244.08 125.13 241.82 116.75C240.35 111.95 235.96 109.16 229.7 109.16C229.41 109.16 227.94 109.16 225.31 109.16L225.31 120.47L225.31 131.79Z" id="a699U62WLK"></path><path d="M209.33 258.25L228.64 258.25L247.94 258.25L247.94 241.61L247.94 224.97L228.64 224.97L209.33 224.97L209.33 241.61L209.33 258.25Z" id="k2I43YBLjc"></path><path d="M407.68 258.25L426.99 258.25L446.29 258.25L446.29 241.61L446.29 224.97L426.99 224.97L407.68 224.97L407.68 241.61L407.68 258.25Z" id="f3hkjHYJG"></path><path d="M250.6 260.92L239.95 260.92L229.3 260.92L229.3 302.85L229.3 344.78L239.95 344.78L250.6 344.78L250.6 355.43L250.6 366.08L327.81 366.08L405.02 366.08L405.02 356.1L405.02 346.11L417 346.11L428.98 346.11L428.98 303.52L428.98 260.92L417 260.92L405.02 260.92L405.02 250.93L405.02 240.95L327.81 240.95L250.6 240.95L250.6 250.93L250.6 260.92Z" id="ckVrvlJNA"></path><path d="M209.33 380.73L228.64 380.73L247.94 380.73L247.94 364.09L247.94 347.45L228.64 347.45L209.33 347.45L209.33 364.09L209.33 380.73Z" id="dndqDegJ"></path><path d="M407.68 382.06L426.99 382.06L446.29 382.06L446.29 365.42L446.29 348.78L426.99 348.78L407.68 348.78L407.68 365.42L407.68 382.06Z" id="bbOanYrm2"></path></defs><g><g><g><use xlink:href="#b1KQBaoML3" opacity="1" fill="#ffffff" fill-opacity="1"></use></g><g><use xlink:href="#d2I3IwDcz1" opacity="1" fill="#000000" fill-opacity="1"></use><g><use xlink:href="#d2I3IwDcz1" opacity="1" fill-opacity="0" stroke="#000000" stroke-width="1" stroke-opacity="0"></use></g></g><g><use xlink:href="#a699U62WLK" opacity="1" fill="#000000" fill-opacity="1"></use><g><use xlink:href="#a699U62WLK" opacity="1" fill-opacity="0" stroke="#000000" stroke-width="1" stroke-opacity="0"></use></g></g><g><use xlink:href="#k2I43YBLjc" opacity="1" fill="#000000" fill-opacity="1"></use><g><use xlink:href="#k2I43YBLjc" opacity="1" fill-opacity="0" stroke="#000000" stroke-width="1" stroke-opacity="0"></use></g></g><g><use xlink:href="#f3hkjHYJG" opacity="1" fill="#000000" fill-opacity="1"></use><g><use xlink:href="#f3hkjHYJG" opacity="1" fill-opacity="0" stroke="#000000" stroke-width="1" stroke-opacity="0"></use></g></g><g><use xlink:href="#ckVrvlJNA" opacity="1" fill="#000000" fill-opacity="1"></use><g><use xlink:href="#ckVrvlJNA" opacity="1" fill-opacity="0" stroke="#000000" stroke-width="1" stroke-opacity="0"></use></g></g><g><use xlink:href="#dndqDegJ" opacity="1" fill="#000000" fill-opacity="1"></use><g><use xlink:href="#dndqDegJ" opacity="1" fill-opacity="0" stroke="#000000" stroke-width="1" stroke-opacity="0"></use></g></g><g><use xlink:href="#bbOanYrm2" opacity="1" fill="#000000" fill-opacity="1"></use><g><use xlink:href="#bbOanYrm2" opacity="1" fill-opacity="0" stroke="#000000" stroke-width="1" stroke-opacity="0"></use></g></g></g></g></svg>